{"title":"The Simply Raw by Dr. Joel Fuhrman@Mastitorrents","uid":5938750,"size":218532004,"categoryP":"video","categoryS":"tv_shows","magnet":"?xt=urn:btih:187502930fced37c4516280fd4f05940380ec2ae&amp;dn=The+Simply+Raw+by+Dr.+Joel+Fuhrman%40Mastitorrents&amp;tr=udp%3A%2F%2Ftracker.openbittorrent.com%3A80&amp;tr=udp%3A%2F%2Fopen.demonii.com%3A1337&amp;tr=udp%3A%2F%2Ftracker.coppersurfer.tk%3A6969&amp;tr=udp%3A%2F%2Fexodus.desync.com%3A6969","seeders":4,"leechers":0,"uploader":"amanrulz","files":1,"time":1289059794,"description":"mastitorrents.com\n &lt;a href=&quot;\nhttp://mastitorrents.com/forums/index.php&quot; rel=&quot;nofollow&quot; target=&quot;_NEW&quot;&gt;\nhttp://mastitorrents.com/forums/index.php&lt;/a&gt;\n\nMediainfo:\nVideo\nFormat : xvid\nDuration : 20mn 45s\nBit rate : 1 263 Kbps\nWidth : 1 920 pixels\nHeight : 1 080 pixels\nDisplay aspect ratio : 16:9\nFrame rate : 29.970 fps\nBits/(Pixel*Frame) : 0.020\nStream size : 187 MiB (90%)\nAudio\nCodec ID/Hint : MP3\nBit rate mode : Constant\nBit rate : 128 Kbps\nChannel(s) : 2 channels\nSampling rate : 44.1 KHz\nStream size : 19.0 MiB (9%)Mediainfo:\nVideo\nFormat : xvid\nDuration : 20mn 45s\nBit rate : 1 263 Kbps\nWidth : 1 920 pixels\nHeight : 1 080 pixels\nDisplay aspect ratio : 16:9\nFrame rate : 29.970 fps\nBits/(Pixel*Frame) : 0.020\nStream size : 187 MiB (90%)\nAudio\nCodec ID/Hint : MP3\nBit rate mode : Constant\nBit rate : 128 Kbps\nChannel(s) : 2 channels\nSampling rate : 44.1 KHz\nStream size : 19.0 MiB (9%)\n\nNo other living being (other than humans) eats processed food by choice e.g. A monkey eats fruits, a lion raw meat, etc. Only humans cook food to eat it.\n\nDr. Joel, who trains athletes, says eat more raw food for good health e.g.\n- No coke or pepsi.\n- No Burger King or Mac Donalads\n- Suck sugarcane if you want, but don't eat sugar granules.\n- Eat raw fruits and vegetables i.e. without cooking; only washing and cutting.","torrent":{"xt":"urn:btih:187502930fced37c4516280fd4f05940380ec2ae","amp;dn":"The+Simply+Raw+by+Dr.+Joel+Fuhrman%40Mastitorrents","amp;tr":["udp%3A%2F%2Ftracker.openbittorrent.com%3A80","udp%3A%2F%2Fopen.demonii.com%3A1337","udp%3A%2F%2Ftracker.coppersurfer.tk%3A6969","udp%3A%2F%2Fexodus.desync.com%3A6969"],"infoHash":"187502930fced37c4516280fd4f05940380ec2ae","infoHashBuffer":{"type":"Buffer","data":[24,117,2,147,15,206,211,124,69,22,40,15,212,240,89,64,56,14,194,174]},"announce":[],"urlList":[]}}